<?xml version="1.0" encoding="utf-8"?>
<!-- Generator: Adobe Illustrator 25.4.1, SVG Export Plug-In . SVG Version: 6.00 Build 0)  -->
<svg version="1.1" xmlns="http://www.w3.org/2000/svg" xmlns:xlink="http://www.w3.org/1999/xlink" x="0px" y="0px"
	 viewBox="0 0 1000 1000" style="enable-background:new 0 0 1000 1000;" xml:space="preserve">
<style type="text/css">
	.st0{display:none;fill:#93B7BE;}
	.st1{fill:url(#Mu_00000126319772200499318420000011766463051589937281_);}
	.st2{fill:url(#Mu_00000029011050057056853800000001090917631569207998_);}
	.st3{fill:#1A2E4A;}
	.st4{display:none;}
	.st5{display:inline;fill:#1A2E4A;}
	.st6{display:inline;fill:#93B7BE;}
	.st7{display:inline;fill:#E6C555;}
</style>
<g id="Logo">
	<rect x="0" y="0" class="st0" width="1000" height="1000"/>
	<g id="Logo_00000054249968574843061190000013380542147404998317_">
		
			<linearGradient id="Mu_00000160898827956003275900000006482109097544434092_" gradientUnits="userSpaceOnUse" x1="1020.7286" y1="702.8126" x2="616.81" y2="298.894">
			<stop  offset="0" style="stop-color:#E3BF74"/>
			<stop  offset="0.4725" style="stop-color:#CC9933"/>
			<stop  offset="1" style="stop-color:#E3C075"/>
		</linearGradient>
		
			<path id="Mu_00000016773414587324592940000012640182061587935666_" style="fill:url(#Mu_00000160898827956003275900000006482109097544434092_);" d="
			M969,622l-94-317.7h60.4c17.3,0,31.3-11.5,31.3-25.8c0-14.2-14-25.8-31.3-25.8h-88.5l-1.4-111.1c-0.2-14.2-14.3-25.7-31.6-25.5
			c-17.3,0.1-31.1,11.8-30.9,26l1.4,110.5h-75.7c-17.3,0-31.3,11.5-31.3,25.8c0,14.2,14,25.8,31.3,25.8h48l-85.6,311.4
			c-3.8,13.9,6.7,27.7,23.6,30.8c16.8,3.1,33.6-5.6,37.4-19.4l54.5-198.3L792,860c0.2,14.2,14.3,25.7,31.6,25.5
			c17.3-0.1,31.1-11.8,30.9-26l-5.3-424.9l59,199.6c4.1,13.8,21,22.3,37.8,18.9C962.8,649.8,973.1,635.8,969,622z"/>
		
			<linearGradient id="Mu_00000134230796149260087080000005202801247393942657_" gradientUnits="userSpaceOnUse" x1="690.8609" y1="710.6474" x2="286.9472" y2="306.7337">
			<stop  offset="0" style="stop-color:#E3BF74"/>
			<stop  offset="0.4725" style="stop-color:#CC9933"/>
			<stop  offset="1" style="stop-color:#E3C075"/>
		</linearGradient>
		<path id="Mu" style="fill:url(#Mu_00000134230796149260087080000005202801247393942657_);" d="M548,310.3l60.7-0.2
			c17.2-0.1,31.1-11.6,31.1-25.8c-0.1-14.2-14.1-25.7-31.3-25.6l-92.1,0.3l-1.6-108.7c-0.2-14.2-14.4-25.6-31.6-25.4
			c-17.2,0.2-31,11.8-30.8,26l1.6,108.3l-91.9,0.3c-17.2,0.1-31.1,11.6-31.1,25.8c0.1,14.2,14.1,25.7,31.3,25.6l62-0.2
			c0,0.1-0.1,0.2-0.1,0.3L304.3,619.4c-5.3,13.5,3.8,28,20.2,32.4c16.4,4.3,34-3.1,39.2-16.6L456,397.7l7,469.4
			c0.2,14.2,14.4,25.6,31.6,25.4c17.2-0.2,31-11.8,30.8-26l-6.7-450.8l68.7,204.1c4.6,13.7,21.8,21.7,38.4,17.9
			c16.6-3.8,26.3-18,21.7-31.7L548,310.3z"/>
		<polyline id="E_00000082329261597850872000000010895739346071999401_" class="st3" points="133.6,0 37.4,100.6 37.4,1000 
			108.7,1000 108.8,1000 940.8,1000 976.9,904.7 150.8,904.7 150.8,554.2 295,552.6 331,443.3 150.8,443.3 150.8,152.1 204.5,95.9 
			442.5,95.9 478.5,0 		"/>
	</g>
</g>
<g id="Font" class="st4">
	<rect x="1120.5" y="46.5" style="display:inline;fill:none;" width="610.5" height="191.5"/>
	<text transform="matrix(1 0 0 1 1120.4678 86.2432)" style="display:inline; font-family:'MyriadPro-Regular'; font-size:56px;">Oswald</text>
</g>
<g id="Colour_Scheme" class="st4">
	<rect y="666.7" class="st5" width="1000" height="333.3"/>
	<rect class="st6" width="1000" height="333.3"/>
	<rect y="333.3" class="st7" width="1000" height="333.3"/>
</g>
</svg>
